<svg width="21" height="21" viewBox="0 0 21 21" fill="none" xmlns="http://www.w3.org/2000/svg">
<path fill-rule="evenodd" clip-rule="evenodd" d="M5.21629 14.0031C5.05629 14.0031 4.89529 13.9521 4.75929 13.8481C4.43129 13.5951 4.36929 13.1241 4.62229 12.7961L7.61529 8.90611C7.73729 8.74711 7.91829 8.64411 8.11629 8.61911C8.31829 8.59311 8.51629 8.64911 8.67329 8.77411L11.4933 10.9891L13.9603 7.80611C14.2143 7.47711 14.6843 7.41611 15.0123 7.67211C15.3403 7.92611 15.4003 8.39711 15.1463 8.72411L12.2163 12.5041C12.0943 12.6621 11.9143 12.7651 11.7163 12.7891C11.5163 12.8161 11.3183 12.7581 11.1603 12.6351L8.34229 10.4211L5.81129 13.7101C5.66329 13.9021 5.44129 14.0031 5.21629 14.0031Z" fill="#BFBFBF"/>
<mask id="mask0_1005_7665" style="mask-type:alpha" maskUnits="userSpaceOnUse" x="15" y="0" width="6" height="6">
<path fill-rule="evenodd" clip-rule="evenodd" d="M15.2954 0H20.6394V5.3449H15.2954V0Z" fill="white"/>
</mask>
<g mask="url(#mask0_1005_7665)">
<path fill-rule="evenodd" clip-rule="evenodd" d="M17.9674 1.5C17.3214 1.5 16.7954 2.025 16.7954 2.672C16.7954 3.318 17.3214 3.845 17.9674 3.845C18.6134 3.845 19.1394 3.318 19.1394 2.672C19.1394 2.025 18.6134 1.5 17.9674 1.5ZM17.9674 5.345C16.4944 5.345 15.2954 4.146 15.2954 2.672C15.2954 1.198 16.4944 0 17.9674 0C19.4414 0 20.6394 1.198 20.6394 2.672C20.6394 4.146 19.4414 5.345 17.9674 5.345Z" fill="#BFBFBF"/>
</g>
<mask id="mask1_1005_7665" style="mask-type:alpha" maskUnits="userSpaceOnUse" x="0" y="0" width="20" height="21">
<path fill-rule="evenodd" clip-rule="evenodd" d="M0 0.841797H19.8619V20.7028H0V0.841797Z" fill="white"/>
</mask>
<g mask="url(#mask1_1005_7665)">
<path fill-rule="evenodd" clip-rule="evenodd" d="M14.233 20.7028H5.629C2.262 20.7028 0 18.3378 0 14.8178V6.7358C0 3.2108 2.262 0.841797 5.629 0.841797H12.897C13.311 0.841797 13.647 1.1778 13.647 1.5918C13.647 2.0058 13.311 2.3418 12.897 2.3418H5.629C3.121 2.3418 1.5 4.0658 1.5 6.7358V14.8178C1.5 17.5228 3.082 19.2028 5.629 19.2028H14.233C16.741 19.2028 18.362 17.4818 18.362 14.8178V7.7788C18.362 7.3648 18.698 7.0288 19.112 7.0288C19.526 7.0288 19.862 7.3648 19.862 7.7788V14.8178C19.862 18.3378 17.6 20.7028 14.233 20.7028Z" fill="#BFBFBF"/>
</g>
</svg>
